<svg width="77" height="121" viewBox="0 0 77 121" fill="none" xmlns="http://www.w3.org/2000/svg">
<g clip-path="url(#clip0_13_154)">
<path d="M66.8448 103.517V101.966C66.8448 86.7804 66.8594 71.5948 66.8156 56.4092C66.8156 55.2799 67.1265 55.0084 68.2095 55.0424C70.7883 55.1199 73.3719 55.0908 75.9556 55.0521C76.6986 55.0424 76.9949 55.1878 76.9949 56.0311C76.9706 75.6905 76.9706 95.345 76.9852 115.004C76.9852 115.581 76.8443 116.017 76.3975 116.362C76.3344 116.41 76.281 116.473 76.2227 116.531C74.7852 117.937 73.5662 119.885 71.8421 120.603C70.1181 121.32 67.8792 120.83 65.8686 120.835C48.1132 120.84 30.3578 120.84 12.6024 120.835C10.8006 120.835 11.0338 121.058 11.024 119.202C11.0143 116.948 11.024 114.689 11.024 112.435C11.024 111.308 11.568 110.744 12.6558 110.744C27.7887 110.744 42.9216 110.744 58.0545 110.744H59.5794C59.1521 110.283 58.8801 109.963 58.579 109.668C42.2806 93.411 25.9918 77.1397 9.66422 60.9024C5.14766 56.4141 1.90351 51.2278 0.669955 44.9461C-1.22894 35.2861 0.878785 26.5809 7.21168 18.9614C10.5578 14.9336 14.8024 12.1805 19.6201 10.1933C27.5945 6.91185 35.5446 3.56744 43.485 0.203634C44.3446 -0.15989 44.6894 -0.0823378 45.039 0.8192C45.9812 3.25723 46.9962 5.67587 48.0695 8.05574C48.4532 8.91366 48.3366 9.22871 47.4527 9.59223C39.3278 12.927 31.2223 16.3101 23.1119 19.6788C14.6373 23.2026 9.71764 30.8365 10.213 39.9683C10.4898 45.1206 12.6121 49.5168 16.2691 53.1666C32.9415 69.7917 49.6187 86.412 66.296 103.037C66.4077 103.149 66.5291 103.241 66.8448 103.517Z" fill="white"/>
</g>
<defs>
<clipPath id="clip0_13_154">
<rect width="77" height="121" fill="white"/>
</clipPath>
</defs>
</svg>
