<svg width="190" height="147" viewBox="0 0 190 147" fill="none" xmlns="http://www.w3.org/2000/svg">
<g clip-path="url(#clip0_23_147)">
<path d="M86.0209 72.8594C55.6639 79.0948 28.5358 81.3593 10.1243 79.6531C25.6409 92.0217 61.5094 95.1354 101.291 86.3603C95.4374 85.1493 89.7669 80.1091 86.0209 72.8594Z" fill="#1E1E1E"/>
<path d="M94.1808 34.1259C92.7334 34.4797 91.4211 35.1402 90.252 36.0602C91.3257 36.1782 93.0515 36.0052 94.9443 35.5491C96.5588 35.156 97.9745 34.6291 98.9129 34.1023C97.3382 33.7563 95.7396 33.7485 94.1808 34.1338" fill="#1E1E1E"/>
<path d="M100.09 32.8596C99.9071 32.1126 97.2985 32.1126 94.2763 32.8439C91.2461 33.583 88.9397 34.786 89.1227 35.533C89.1465 35.6352 89.2181 35.7296 89.3294 35.8004C90.6815 34.8096 92.1767 34.0862 93.815 33.6852C95.7237 33.2213 97.6723 33.2292 99.5969 33.6538C99.9628 33.3628 100.146 33.0876 100.082 32.8596" fill="#1E1E1E"/>
<path d="M87.373 39.2841C89.902 39.0718 92.8447 38.5843 95.9305 37.8373C98.4676 37.2161 100.83 36.4849 102.889 35.7064C101.824 35.0774 100.726 34.5977 99.6208 34.2832C98.5153 34.8808 96.8928 35.4784 95.0398 35.9266C92.9083 36.4455 90.9519 36.6578 89.6714 36.5478C88.8125 37.3183 88.041 38.2383 87.3809 39.2841" fill="#1E1E1E"/>
<path d="M102.301 69.2027C98.7141 70.0755 95.1591 70.9011 91.6279 71.6717C95.4851 75.9728 100.337 78.1587 104.886 77.05C109.451 75.9413 112.72 71.766 114.103 66.1597C110.238 67.2133 106.309 68.2277 102.301 69.2027Z" fill="#1E1E1E"/>
<path d="M106.421 38.4423C105.673 37.7032 104.894 37.0506 104.082 36.4766C101.641 37.4044 98.8334 38.2851 95.8112 39.0163C92.5107 39.8184 89.3612 40.3688 86.5856 40.6519C86.1402 41.5011 85.7664 42.4053 85.4483 43.3646C89.0193 42.8928 92.9163 42.1694 96.9565 41.1787C100.313 40.3609 103.494 39.4331 106.413 38.4423" fill="#1E1E1E"/>
<path d="M99.072 52.1006C103.796 50.9526 108.353 49.6945 112.712 48.3735C111.527 45.2204 109.904 42.4447 108.019 40.1802C104.576 41.3439 100.838 42.429 96.9008 43.3883C92.6936 44.4105 88.6057 45.2125 84.8041 45.7708C84.1838 48.6487 84.0565 51.8568 84.478 55.2065C89.1942 54.3573 94.0854 53.3194 99.08 52.1006" fill="#1E1E1E"/>
<path d="M100.893 63.5255C114.103 60.3017 114.748 57.9034 114.716 56.9599C114.589 55.6703 114.39 54.3572 114.095 53.0283C109.347 54.4515 104.385 55.7883 99.2788 57.0385C94.5864 58.1786 89.9657 59.193 85.4642 60.0736C85.7903 61.2059 86.1561 62.3067 86.5856 63.3604C86.6333 63.4705 88.0967 66.6471 100.893 63.5255Z" fill="#1E1E1E"/>
<path d="M110.747 30.0843C110.214 27.9377 102.707 27.9141 93.982 30.0371C85.2654 32.1601 78.6245 35.6356 79.1653 37.7822C79.4755 39.0167 82.0762 39.5436 85.8778 39.3784C86.689 38.2226 87.6116 37.2004 88.6296 36.3433C88.3592 36.2332 88.1842 36.0917 88.1365 35.903C87.9138 35.0223 90.6417 33.5991 94.2286 32.7184C97.8075 31.8456 100.893 31.8535 101.116 32.7341C101.195 33.0487 100.901 33.4261 100.337 33.8271C101.545 34.1574 102.738 34.6527 103.907 35.2896C108.329 33.489 111.097 31.4996 110.739 30.0764" fill="#1E1E1E"/>
<path d="M123.472 27.3319C122.51 23.4868 109.077 23.4475 93.481 27.2532C77.8769 31.059 66.0029 37.2629 66.9573 41.1079C67.6254 43.7893 74.3378 44.6149 83.627 43.5927C84.0167 42.6019 84.478 41.6662 84.987 40.7934C79.9209 41.1473 76.3977 40.5418 76.008 38.9692C75.3717 36.4294 83.2135 32.3328 93.5207 29.8166C103.82 27.3083 112.688 27.3319 113.324 29.8716C113.746 31.5543 110.453 33.9132 105.196 36.052C106.063 36.6181 106.922 37.2629 107.757 37.9863C117.674 34.4558 124.204 30.2255 123.488 27.3319" fill="#1E1E1E"/>
<path d="M156.398 22.1502C154.322 13.8311 125.293 13.7524 91.5563 21.9772C57.8192 30.202 32.1545 43.6164 34.2302 51.9355C35.9322 58.7763 55.8468 60.0423 81.6229 55.7097C81.5354 52.25 81.9489 48.979 82.784 46.0539C70.5123 47.6501 61.4458 46.7301 60.5948 43.294C59.4337 38.639 73.797 31.1219 92.6936 26.5142C111.582 21.9064 127.838 21.9536 129 26.6085C129.882 30.1548 121.762 35.3601 109.499 39.6691C111.59 41.8708 113.467 44.5678 115.002 47.658C140.508 39.5983 158.132 29.0933 156.398 22.1423" fill="#1E1E1E"/>
<path d="M112.004 83.7336C150.998 73.1735 180.957 54.0584 188.831 36.0913C173.458 45.9752 148.644 56.3623 119.138 64.76C119.225 72.9062 116.585 79.9593 111.996 83.7336" fill="#1E1E1E"/>
<path d="M166.888 4.00215C147.355 -1.79293 117.961 -1.49413 86.5776 6.15663C55.2026 13.8074 29.0289 27.0567 14.4667 41.163C33.0452 31.6487 59.1871 22.213 88.7886 15.0026C118.382 7.78429 145.964 4.12796 166.888 4.00215Z" fill="#1E1E1E"/>
<path d="M55.6241 71.6481C56.2365 71.5695 69.717 69.9025 80.1595 66.9381C82.5534 66.254 82.951 65.3341 82.9431 64.7758C82.8954 64.6107 82.8476 64.4455 82.8079 64.2804C82.5057 63.0852 82.275 61.89 82.0841 60.7106C49.0707 66.7494 23.072 65.4363 20.9247 56.8341C18.4194 46.7772 49.4366 30.5715 90.1963 20.6325C130.964 10.6936 166.045 10.788 168.55 20.8448C170.682 29.392 148.604 42.3739 116.903 52.187C117.301 53.3272 117.65 54.5066 117.953 55.7175C118 55.8984 118.024 56.0714 118.064 56.2522L118.072 56.2444C118.072 56.2444 119.114 58.6583 122.526 57.6047C149.638 49.3013 171.366 39.1736 182.285 30.0682C182.468 29.9188 182.651 29.7616 182.826 29.6122C182.977 29.4785 183.129 29.3527 183.272 29.219C183.59 28.9359 183.908 28.6529 184.21 28.3777C184.258 28.3305 184.306 28.2833 184.353 28.2361C188.64 24.1945 190.636 20.3809 189.817 17.0784C189.006 13.8389 185.562 11.4092 180.035 9.78151C180.027 9.78151 180.019 9.77365 180.011 9.76579C179.892 9.72647 179.756 9.69502 179.629 9.66357C179.518 9.63211 179.406 9.60066 179.287 9.56921C178.754 9.42767 178.206 9.28614 177.641 9.15247C177.593 9.13674 177.537 9.12888 177.49 9.12101C160.104 5.16589 126.534 7.70566 89.234 16.8032C52.9439 25.6413 22.6982 38.3559 8.62913 49.6158C8.56551 49.6708 8.50188 49.718 8.43826 49.7731C8.26329 49.9146 8.09627 50.0483 7.92926 50.1898C2.07576 54.947 -0.771454 59.4446 0.18292 63.2582C1.00209 66.5135 4.52532 68.9511 10.1641 70.563C19.8828 73.4094 36.0117 73.7711 55.6241 71.6481Z" fill="#1E1E1E"/>
<path d="M16.0414 119.424H27.3508V114.368C27.3508 113.283 27.2871 112.489 27.1679 111.978C27.0486 111.467 26.8179 111.034 26.4918 110.704C26.1976 110.397 25.8556 110.177 25.4818 110.043C25.108 109.91 24.6069 109.823 23.9946 109.792V109.43H34.1746V109.792C33.5701 109.823 33.077 109.91 32.7032 110.043C32.3294 110.177 31.9874 110.397 31.6932 110.704C31.3671 111.042 31.1365 111.467 31.0172 111.986C30.8979 112.505 30.8342 113.299 30.8342 114.368V125.974C30.8342 127.043 30.8979 127.838 31.0172 128.349C31.1365 128.86 31.3671 129.292 31.6932 129.638C31.9874 129.929 32.3294 130.149 32.7032 130.291C33.077 130.432 33.5701 130.519 34.1746 130.55V130.912H23.9946V130.55C24.6069 130.519 25.108 130.432 25.4818 130.291C25.8556 130.149 26.1976 129.929 26.4918 129.638C26.8179 129.3 27.0486 128.876 27.1679 128.364C27.2871 127.853 27.3508 127.051 27.3508 125.974V120.163H16.0414V125.974C16.0414 127.043 16.1051 127.838 16.2244 128.364C16.3437 128.883 16.5743 129.308 16.9004 129.646C17.1867 129.937 17.5207 130.157 17.8945 130.299C18.2763 130.44 18.7694 130.527 19.3818 130.558V130.92H9.20176V130.558C9.81415 130.527 10.3152 130.44 10.689 130.299C11.0628 130.157 11.3968 129.937 11.6831 129.646C12.0251 129.308 12.2478 128.883 12.3671 128.372C12.4864 127.861 12.5421 127.059 12.5421 125.982V114.376C12.5421 113.291 12.4864 112.497 12.3671 111.986C12.2478 111.475 12.0251 111.042 11.6831 110.712C11.3968 110.405 11.0628 110.185 10.681 110.051C10.2993 109.918 9.8062 109.831 9.20176 109.8V109.438H19.3818V109.8C18.7773 109.831 18.2842 109.918 17.9104 110.051C17.5287 110.185 17.1946 110.405 16.9004 110.712C16.5743 111.05 16.3437 111.475 16.2244 111.994C16.1051 112.512 16.0414 113.307 16.0414 114.376V119.432V119.424Z" fill="#1E1E1E"/>
<path d="M66.8857 130.92H58.2884V130.621C59.0678 130.551 59.6086 130.425 59.9108 130.236C60.4517 129.898 60.7221 129.434 60.7221 128.836C60.7221 128.483 60.6028 128.011 60.3562 127.413L60.1335 126.871L58.8769 123.82H53.1189L52.4349 125.605L52.1088 126.407C51.7191 127.358 51.5203 128.105 51.5203 128.648C51.5203 128.97 51.5919 129.269 51.735 129.544C51.8782 129.819 52.0691 130.047 52.3156 130.22C52.6576 130.456 53.095 130.59 53.6199 130.637V130.936H47.7585V130.637C48.2198 130.613 48.6254 130.503 48.9753 130.299C49.3252 130.102 49.6672 129.78 49.9933 129.34C50.2717 128.986 50.5421 128.53 50.8125 127.972C51.0749 127.413 51.4328 126.58 51.8702 125.471L56.658 113.268H57.4056L63.1 126.871C63.5295 127.893 63.8715 128.632 64.118 129.072C64.3725 129.513 64.643 129.843 64.9452 130.071C65.152 130.228 65.3985 130.346 65.6689 130.425C65.9393 130.503 66.3449 130.574 66.8857 130.637V130.936V130.92ZM58.6622 123.285L55.9104 116.586L53.3177 123.285H58.6543H58.6622Z" fill="#1E1E1E"/>
<path d="M77.9724 130.92V130.614C78.8552 130.614 79.5312 130.37 80.0163 129.874C80.2867 129.599 80.4696 129.245 80.573 128.821C80.6764 128.396 80.7241 127.744 80.7241 126.863V117.325C80.7241 116.413 80.6685 115.737 80.5571 115.304C80.4458 114.872 80.247 114.51 79.9447 114.235C79.6982 114.007 79.4278 113.849 79.1256 113.739C78.8234 113.637 78.4416 113.574 77.9644 113.559V113.26H86.3311V113.559C85.8539 113.582 85.4563 113.645 85.154 113.755C84.8518 113.857 84.5814 114.022 84.3428 114.243C84.0486 114.526 83.8418 114.887 83.7384 115.32C83.635 115.752 83.5793 116.421 83.5793 117.325V124.795C83.5793 125.943 83.6111 126.8 83.6748 127.358C83.7384 127.917 83.8497 128.373 84.0247 128.726C84.3269 129.348 84.7882 129.804 85.3847 130.095C85.9891 130.386 86.7844 130.527 87.7786 130.527C88.7727 130.527 89.6953 130.393 90.4031 130.118C91.1109 129.843 91.6995 129.426 92.1528 128.86C92.455 128.475 92.7095 128.034 92.9083 127.539C93.1072 127.044 93.2901 126.399 93.4491 125.597L93.7673 125.621L93.6002 130.928H77.9724V130.92Z" fill="#1E1E1E"/>
<path d="M105.045 130.92V130.614C105.928 130.614 106.604 130.37 107.089 129.874C107.359 129.599 107.542 129.245 107.645 128.821C107.749 128.396 107.797 127.744 107.797 126.863V117.325C107.797 116.413 107.741 115.737 107.63 115.304C107.518 114.872 107.319 114.51 107.017 114.235C106.771 114.007 106.5 113.849 106.198 113.739C105.896 113.637 105.514 113.574 105.037 113.559V113.26H113.404V113.559C112.926 113.582 112.529 113.645 112.226 113.755C111.916 113.857 111.654 114.022 111.415 114.243C111.121 114.526 110.914 114.887 110.811 115.32C110.707 115.752 110.652 116.421 110.652 117.325V124.795C110.652 125.943 110.684 126.8 110.747 127.358C110.811 127.917 110.922 128.373 111.097 128.726C111.399 129.348 111.861 129.804 112.457 130.095C113.062 130.386 113.857 130.527 114.851 130.527C115.845 130.527 116.768 130.393 117.476 130.118C118.183 129.843 118.772 129.426 119.225 128.86C119.527 128.475 119.782 128.034 119.981 127.539C120.18 127.044 120.362 126.399 120.522 125.597L120.832 125.621L120.665 130.928H105.037L105.045 130.92Z" fill="#1E1E1E"/>
<path d="M146.186 113.26L146.409 117.529L146.107 117.545C145.995 116.822 145.805 116.224 145.542 115.744C145.28 115.273 144.898 114.848 144.405 114.486C143.991 114.188 143.514 113.967 142.949 113.849C142.393 113.724 141.645 113.661 140.722 113.661H137.724V121.429H138.512C139.307 121.429 139.903 121.374 140.309 121.272C140.715 121.17 141.041 120.981 141.287 120.714C141.534 120.462 141.717 120.171 141.828 119.825C141.947 119.487 142.043 118.984 142.122 118.316L142.424 118.331L142.369 125.267H142.067C141.987 124.606 141.876 124.071 141.717 123.663C141.566 123.262 141.351 122.916 141.08 122.625C140.818 122.349 140.476 122.145 140.062 122.019C139.641 121.893 139.108 121.823 138.464 121.823H137.716V124.787C137.716 125.966 137.748 126.831 137.804 127.366C137.867 127.909 137.987 128.357 138.162 128.719C138.456 129.34 138.909 129.796 139.514 130.087C140.118 130.378 140.921 130.519 141.915 130.519C142.965 130.519 143.84 130.386 144.548 130.126C145.256 129.859 145.828 129.458 146.274 128.899C146.584 128.53 146.846 128.105 147.037 127.633C147.236 127.162 147.411 126.533 147.578 125.754L147.88 125.77L147.713 130.92H132.101V130.621C132.602 130.598 133 130.527 133.31 130.417C133.62 130.307 133.899 130.126 134.137 129.874C134.408 129.599 134.591 129.245 134.694 128.821C134.797 128.396 134.845 127.744 134.845 126.863V117.325C134.845 116.444 134.797 115.792 134.694 115.367C134.591 114.942 134.408 114.589 134.137 114.313C133.899 114.062 133.628 113.881 133.318 113.771C133.008 113.661 132.602 113.59 132.093 113.566V113.268H146.162L146.186 113.26Z" fill="#1E1E1E"/>
<path d="M164.852 130.92V130.558C165.457 130.527 165.95 130.44 166.332 130.307C166.713 130.173 167.047 129.953 167.35 129.646C167.676 129.308 167.898 128.891 168.018 128.372C168.137 127.861 168.193 127.067 168.193 125.99L168.208 122.931C168.208 122.491 168.121 122.003 167.938 121.469C167.739 120.847 167.326 120.077 166.697 119.149L162.586 113.047L161.854 111.946C161.313 111.152 160.788 110.61 160.263 110.311C160.001 110.154 159.73 110.044 159.468 109.981C159.206 109.918 158.832 109.878 158.355 109.855V109.493H168.71V109.855C167.827 109.91 167.27 109.989 167.023 110.091C166.435 110.342 166.133 110.798 166.133 111.459C166.133 111.703 166.196 111.97 166.332 112.277C166.467 112.583 166.681 112.961 166.976 113.425L171.278 120.077L174.961 114.392L175.374 113.747C175.764 113.142 175.963 112.544 175.963 111.962C175.963 111.294 175.748 110.775 175.311 110.405C174.873 110.036 174.269 109.855 173.481 109.855V109.493H180.782V109.855C180.234 109.918 179.812 110.012 179.51 110.13C179.216 110.248 178.913 110.445 178.603 110.72C177.879 111.388 177.084 112.387 176.209 113.716L172.591 119.18C172.161 119.833 171.891 120.305 171.795 120.612C171.7 120.918 171.652 121.429 171.652 122.153V125.998C171.652 127.114 171.708 127.924 171.819 128.404C171.931 128.891 172.153 129.308 172.495 129.654C173.076 130.26 173.911 130.566 174.985 130.566V130.928H164.836L164.852 130.92Z" fill="#1E1E1E"/>
<path d="M46.0724 139.451L46.136 141.849H46.0088C45.969 141.747 45.9372 141.669 45.9134 141.614C45.7861 141.268 45.6827 141.016 45.6032 140.843C45.46 140.544 45.2612 140.269 44.9908 140.017C44.784 139.829 44.5772 139.687 44.3625 139.601C44.1478 139.514 43.9012 139.475 43.6308 139.475C43.2252 139.475 42.8673 139.561 42.5651 139.734C42.3026 139.892 42.0561 140.112 41.8255 140.395C41.5948 140.686 41.4119 141.008 41.2687 141.378C41.062 141.897 40.9586 142.486 40.9586 143.147C40.9586 143.713 41.0301 144.216 41.1733 144.664C41.3165 145.113 41.5232 145.49 41.7936 145.797C42.2947 146.363 42.9548 146.646 43.7819 146.646C44.1955 146.646 44.5693 146.575 44.8954 146.434C45.2214 146.292 45.4759 146.096 45.6589 145.836C45.8656 145.537 46.0247 145.136 46.1122 144.633L46.2394 144.657C46.1679 145.223 46.0167 145.671 45.7702 146.001C45.5396 146.316 45.2214 146.559 44.8158 146.732C44.4102 146.898 43.933 146.984 43.4002 146.984C42.8991 146.984 42.4219 146.913 41.9686 146.764C41.2449 146.528 40.6723 146.103 40.2666 145.482C39.861 144.861 39.6543 144.13 39.6543 143.273C39.6543 142.62 39.7735 142.015 40.0121 141.464C40.2507 140.914 40.5848 140.466 41.0142 140.127C41.3403 139.868 41.738 139.664 42.1913 139.514C42.6526 139.365 43.1059 139.286 43.5672 139.286C44.0285 139.286 44.4659 139.373 44.959 139.53L45.4044 139.679C45.4918 139.711 45.5634 139.726 45.635 139.726C45.7225 139.726 45.802 139.687 45.8577 139.616C45.8815 139.577 45.9134 139.522 45.9531 139.436H46.0804L46.0724 139.451Z" fill="#1E1E1E"/>
<path d="M63.6488 139.491V139.617C63.442 139.624 63.275 139.656 63.1478 139.703C63.0205 139.75 62.9092 139.821 62.8058 139.931C62.6626 140.073 62.5751 140.269 62.5433 140.529C62.5195 140.717 62.5115 140.938 62.5115 141.181V145.136C62.5115 145.435 62.5274 145.671 62.5513 145.836C62.5831 146.009 62.6308 146.143 62.6944 146.253C62.7899 146.394 62.9092 146.505 63.0603 146.575C63.2114 146.646 63.4023 146.685 63.6488 146.701V146.827H60.1812V146.701C60.388 146.693 60.563 146.662 60.6902 146.615C60.8175 146.567 60.9288 146.489 61.0322 146.394C61.1515 146.277 61.2231 146.135 61.2629 145.962C61.3026 145.789 61.3265 145.514 61.3265 145.144V141.189C61.3265 140.82 61.3106 140.544 61.2629 140.371C61.2231 140.198 61.1436 140.049 61.0322 139.939C60.9368 139.837 60.8175 139.758 60.6902 139.711C60.563 139.664 60.388 139.632 60.1892 139.624V139.499H63.6568L63.6488 139.491Z" fill="#1E1E1E"/>
<path d="M78.887 140.458V145.129C78.887 145.498 78.9108 145.773 78.9506 145.946C78.9904 146.119 79.0699 146.269 79.1812 146.379C79.2846 146.481 79.396 146.56 79.5232 146.607C79.6505 146.654 79.8175 146.686 80.0243 146.693V146.819H77.519V146.693C77.7258 146.686 77.8928 146.654 78.0201 146.607C78.1473 146.56 78.2666 146.489 78.3621 146.379C78.4734 146.269 78.553 146.119 78.5927 145.946C78.6325 145.766 78.6563 145.498 78.6563 145.129V141.166C78.6563 140.804 78.6325 140.537 78.5927 140.356C78.553 140.183 78.4734 140.033 78.3621 139.915C78.2666 139.813 78.1473 139.735 78.0201 139.687C77.8928 139.64 77.7258 139.609 77.5111 139.601V139.475H79.6028L84.0088 145.034V141.158C84.0088 140.788 83.9849 140.521 83.9452 140.34C83.9054 140.167 83.8259 140.018 83.7145 139.908C83.6111 139.805 83.4998 139.727 83.3725 139.68C83.2453 139.632 83.0783 139.601 82.8715 139.593V139.467H85.3767V139.593C85.0109 139.593 84.7325 139.695 84.5257 139.908C84.4144 140.026 84.3349 140.167 84.2951 140.348C84.2553 140.529 84.2315 140.796 84.2315 141.158V146.804H83.9849L78.8711 140.45L78.887 140.458Z" fill="#1E1E1E"/>
<path d="M105.108 139.491L105.204 141.26H105.077C105.029 140.961 104.949 140.718 104.846 140.521C104.735 140.324 104.584 140.151 104.377 140.002C104.21 139.876 104.003 139.79 103.772 139.735C103.542 139.68 103.231 139.656 102.85 139.656H101.609V142.88H101.935C102.261 142.88 102.516 142.856 102.683 142.817C102.85 142.778 102.985 142.699 103.088 142.589C103.192 142.487 103.263 142.361 103.311 142.219C103.359 142.078 103.399 141.866 103.43 141.598H103.558L103.534 144.484H103.406C103.375 144.209 103.327 143.989 103.263 143.816C103.2 143.65 103.112 143.501 103.001 143.383C102.889 143.273 102.754 143.187 102.579 143.131C102.404 143.076 102.182 143.053 101.919 143.053H101.609V144.279C101.609 144.767 101.617 145.129 101.649 145.349C101.673 145.569 101.72 145.758 101.792 145.907C101.911 146.167 102.102 146.355 102.357 146.473C102.611 146.591 102.937 146.654 103.351 146.654C103.788 146.654 104.146 146.599 104.44 146.489C104.735 146.379 104.973 146.214 105.156 145.986C105.283 145.829 105.395 145.656 105.474 145.459C105.554 145.262 105.633 145.003 105.697 144.681H105.824L105.753 146.819H99.2708V146.693C99.4776 146.686 99.6446 146.654 99.7719 146.607C99.8991 146.56 100.018 146.489 100.114 146.379C100.225 146.261 100.305 146.119 100.345 145.939C100.384 145.758 100.408 145.49 100.408 145.121V141.166C100.408 140.804 100.384 140.529 100.345 140.348C100.305 140.175 100.225 140.026 100.114 139.908C100.018 139.805 99.8991 139.727 99.7719 139.68C99.6446 139.632 99.4697 139.601 99.2629 139.593V139.467H105.1L105.108 139.491Z" fill="#1E1E1E"/>
<path d="M128.92 139.616C128.713 139.624 128.546 139.656 128.427 139.703C128.3 139.75 128.188 139.821 128.085 139.923C128.005 140.002 127.95 140.08 127.91 140.175C127.87 140.261 127.846 140.379 127.83 140.521C127.807 140.709 127.791 140.93 127.791 141.181V145.136C127.791 145.506 127.815 145.781 127.854 145.954C127.894 146.135 127.974 146.276 128.085 146.387C128.284 146.575 128.562 146.677 128.928 146.701V146.827H125.46V146.701C125.667 146.693 125.842 146.662 125.969 146.615C126.097 146.567 126.216 146.489 126.311 146.387C126.423 146.276 126.502 146.127 126.542 145.954C126.582 145.773 126.606 145.506 126.606 145.136V140.34L123.806 146.827H123.695L120.919 140.442V145.144C120.919 145.514 120.935 145.789 120.983 145.962C121.023 146.135 121.102 146.284 121.213 146.394C121.317 146.497 121.428 146.575 121.555 146.622C121.683 146.67 121.85 146.701 122.057 146.709V146.835H119.551V146.709C119.758 146.701 119.925 146.67 120.052 146.622C120.18 146.575 120.291 146.504 120.394 146.394C120.506 146.284 120.585 146.135 120.625 145.962C120.665 145.781 120.689 145.514 120.689 145.144V141.189C120.689 141.024 120.689 140.867 120.673 140.725C120.657 140.458 120.617 140.269 120.545 140.143C120.458 139.978 120.331 139.852 120.172 139.774C120.013 139.695 119.806 139.648 119.543 139.632V139.506H121.897L124.252 145.246L126.685 139.506H128.92V139.632V139.616Z" fill="#1E1E1E"/>
<path d="M150.354 146.819H146.791V146.693C147.109 146.662 147.339 146.615 147.467 146.528C147.689 146.387 147.801 146.198 147.801 145.946C147.801 145.797 147.753 145.6 147.65 145.357L147.554 145.129L147.029 143.863H144.643L144.365 144.602L144.23 144.932C144.071 145.325 143.983 145.632 143.983 145.86C143.983 145.994 144.015 146.119 144.071 146.23C144.134 146.34 144.214 146.434 144.309 146.505C144.452 146.599 144.635 146.662 144.85 146.678V146.804H142.417V146.678C142.607 146.67 142.774 146.623 142.918 146.536C143.061 146.458 143.204 146.324 143.339 146.135C143.458 145.986 143.57 145.797 143.681 145.569C143.792 145.341 143.936 144.995 144.118 144.531L146.107 139.467H146.417L148.779 145.105C148.954 145.53 149.097 145.836 149.201 146.017C149.304 146.198 149.423 146.34 149.542 146.426C149.63 146.489 149.725 146.536 149.845 146.576C149.956 146.607 150.123 146.638 150.354 146.662V146.788V146.819ZM146.95 143.65L145.812 140.867L144.739 143.65H146.958H146.95Z" fill="#1E1E1E"/>
</g>
<defs>
<clipPath id="clip0_23_147">
<rect width="190" height="147" fill="white"/>
</clipPath>
</defs>
</svg>
