<svg width="84" height="53" viewBox="0 0 84 53" fill="none" xmlns="http://www.w3.org/2000/svg">
<g clip-path="url(#clip0_156_810)">
<path d="M71.8631 6.99007L70.7863 6.99007C60.2442 6.99007 49.7022 6.98004 39.1601 7.01013C38.3761 7.01013 38.1877 6.79619 38.2112 6.05075C38.2651 4.27572 38.2449 2.49736 38.218 0.718996C38.2112 0.207548 38.3122 0.00363755 38.8977 0.00363752C52.5455 0.0203491 66.1899 0.0203447 79.8377 0.0103191C80.2381 0.0103191 80.541 0.107262 80.7799 0.414799C80.8135 0.458252 80.8573 0.495026 80.8977 0.535137C81.8735 1.52461 83.2261 2.36365 83.7241 3.55034C84.2221 4.73703 83.8823 6.27805 83.8856 7.66197C83.889 19.8832 83.889 32.1045 83.8856 44.3257C83.8856 45.5659 84.0404 45.4055 82.7517 45.4121C81.187 45.4188 79.619 45.4121 78.0544 45.4121C77.2715 45.4121 76.88 45.0377 76.88 44.289C76.88 33.8728 76.88 23.4567 76.88 13.0405L76.88 11.9909C76.5604 12.2851 76.3383 12.4722 76.133 12.6795C64.8473 23.8979 53.5516 35.1097 42.2793 46.3481C39.1635 49.4569 35.5631 51.6899 31.2023 52.539C24.4961 53.846 18.4529 52.3952 13.1633 48.0362C10.3671 45.7331 8.4559 42.8114 7.07632 39.4954C4.79832 34.0065 2.47657 28.5344 0.14137 23.0689C-0.110994 22.4772 -0.0571563 22.2399 0.568705 21.9992C2.26122 21.3507 3.94028 20.6521 5.59242 19.9133C6.188 19.6492 6.40671 19.7295 6.65908 20.3378C8.97409 25.9303 11.3228 31.5095 13.6613 37.0919C16.1076 42.9251 21.4072 46.3114 27.7466 45.9704C31.3234 45.7798 34.3753 44.319 36.909 41.8019C48.4505 30.3261 59.9885 18.847 71.5299 7.36781C71.6073 7.29092 71.6713 7.20735 71.8631 6.99007Z" fill="white"/>
</g>
<defs>
<clipPath id="clip0_156_810">
<rect width="53" height="84" fill="white" transform="translate(0 53) rotate(-90)"/>
</clipPath>
</defs>
</svg>
