<svg width="115" height="89" viewBox="0 0 115 89" fill="none" xmlns="http://www.w3.org/2000/svg">
<g clip-path="url(#clip0_156_774)">
<path d="M52.0654 44.112C33.6914 47.8872 17.2717 49.2583 6.12793 48.2252C15.5195 55.7137 37.2294 57.5989 61.3077 52.286C57.7648 51.5529 54.3326 48.5013 52.0654 44.112Z" fill="#00FF7F"/>
<path d="M57.0042 20.6611C56.1281 20.8754 55.3338 21.2753 54.6262 21.8323C55.2761 21.9037 56.3207 21.7989 57.4663 21.5228C58.4435 21.2848 59.3004 20.9658 59.8684 20.6469C58.9153 20.4374 57.9477 20.4326 57.0042 20.6659" fill="#00FF7F"/>
<path d="M60.5808 19.8947C60.4701 19.4424 58.8912 19.4424 57.062 19.8852C55.2279 20.3327 53.832 21.061 53.9427 21.5133C53.9571 21.5752 54.0004 21.6323 54.0678 21.6752C54.8862 21.0753 55.7912 20.6373 56.7828 20.3945C57.9381 20.1137 59.1174 20.1184 60.2824 20.3755C60.5038 20.1994 60.6145 20.0327 60.576 19.8947" fill="#00FF7F"/>
<path d="M52.8837 23.7841C54.4144 23.6556 56.1955 23.3604 58.0632 22.9082C59.5988 22.5321 61.0285 22.0893 62.2753 21.618C61.6302 21.2372 60.9659 20.9468 60.2968 20.7564C59.6277 21.1182 58.6457 21.48 57.5241 21.7513C56.234 22.0655 55.0498 22.1941 54.2748 22.1274C53.755 22.594 53.288 23.1509 52.8885 23.7841" fill="#00FF7F"/>
<path d="M61.919 41.8983C59.748 42.4267 57.5963 42.9266 55.459 43.3932C57.7936 45.9972 60.73 47.3207 63.4835 46.6494C66.2466 45.9782 68.225 43.4503 69.0626 40.056C66.7231 40.6939 64.3451 41.308 61.919 41.8983Z" fill="#00FF7F"/>
<path d="M64.4126 23.2747C63.9601 22.8272 63.4883 22.4321 62.9973 22.0846C61.5195 22.6463 59.8203 23.1795 57.991 23.6223C55.9933 24.1078 54.0871 24.4411 52.4071 24.6125C52.1375 25.1266 51.9113 25.6741 51.7188 26.2549C53.8801 25.9692 56.2388 25.5313 58.6842 24.9314C60.7156 24.4363 62.6411 23.8746 64.4077 23.2747" fill="#00FF7F"/>
<path d="M59.9647 31.5439C62.824 30.8489 65.5823 30.0872 68.2202 29.2874C67.503 27.3784 66.521 25.6979 65.3801 24.3268C63.2958 25.0314 61.0333 25.6884 58.6505 26.2692C56.1041 26.888 53.6298 27.3736 51.3288 27.7116C50.9534 29.454 50.8764 31.3964 51.1315 33.4244C53.986 32.9102 56.9465 32.2818 59.9695 31.5439" fill="#00FF7F"/>
<path d="M61.067 38.4611C69.0626 36.5093 69.4525 35.0573 69.4333 34.486C69.3563 33.7053 69.2359 32.9102 69.0578 32.1057C66.184 32.9674 63.1803 33.7767 60.0898 34.5336C57.2497 35.2239 54.453 35.838 51.7284 36.3712C51.9258 37.0568 52.1472 37.7232 52.4071 38.3612C52.436 38.4278 53.3217 40.3511 61.067 38.4611Z" fill="#00FF7F"/>
<path d="M67.0312 18.2142C66.7087 16.9145 62.1645 16.9002 56.8839 18.1856C51.608 19.471 47.5885 21.5752 47.9159 22.8748C48.1036 23.6223 49.6777 23.9412 51.9787 23.8412C52.4697 23.1414 53.0281 22.5226 53.6442 22.0036C53.4805 21.937 53.3746 21.8513 53.3458 21.737C53.211 21.2039 54.8621 20.3422 57.0331 19.809C59.1993 19.2806 61.067 19.2853 61.2018 19.8185C61.2499 20.0089 61.0718 20.2374 60.73 20.4802C61.4617 20.6802 62.1838 20.9801 62.8914 21.3657C65.5678 20.2755 67.243 19.0711 67.0264 18.2094" fill="#00FF7F"/>
<path d="M74.7331 16.548C74.1507 14.22 66.0203 14.1962 56.5806 16.5003C47.136 18.8045 39.9491 22.5606 40.5268 24.8886C40.9311 26.512 44.9939 27.0118 50.6164 26.3929C50.8522 25.7931 51.1314 25.2266 51.4395 24.6982C48.3732 24.9124 46.2407 24.5458 46.0048 23.5937C45.6197 22.056 50.366 19.5757 56.6046 18.0523C62.8384 16.5337 68.2057 16.548 68.5908 18.0856C68.846 19.1044 66.8531 20.5326 63.6712 21.8275C64.1959 22.1703 64.7158 22.5606 65.2212 22.9986C71.2239 20.8611 75.176 18.2999 74.7428 16.548" fill="#00FF7F"/>
<path d="M94.6619 13.4107C93.4056 8.37395 75.8354 8.32634 55.4156 13.306C34.9958 18.2856 19.4619 26.4072 20.7182 31.444C21.7484 35.5857 33.802 36.3522 49.4033 33.7291C49.3503 31.6344 49.6006 29.654 50.1061 27.883C42.6785 28.8494 37.1908 28.2924 36.6758 26.212C35.9729 23.3937 44.6665 18.8426 56.104 16.0528C67.5366 13.2631 77.3758 13.2917 78.0786 16.11C78.613 18.257 73.6981 21.4086 66.2754 24.0174C67.5414 25.3504 68.6774 26.9833 69.6065 28.8542C85.0441 23.9745 95.7113 17.6143 94.6619 13.4059" fill="#00FF7F"/>
<path d="M67.7918 50.696C91.3935 44.3024 109.527 32.7293 114.292 21.8513C104.987 27.8354 89.9687 34.1242 72.1097 39.2086C72.1627 44.1406 70.5645 48.4109 67.787 50.696" fill="#00FF7F"/>
<path d="M101.011 2.42316C89.1888 -1.08542 71.3973 -0.90452 52.4023 3.72757C33.4121 8.35967 17.5702 16.3813 8.75623 24.9219C20.0011 19.1615 35.8238 13.4488 53.7405 9.08328C71.6524 4.71302 88.3464 2.49933 101.011 2.42316Z" fill="#00FF7F"/>
<path d="M33.6672 43.3789C34.0379 43.3313 42.1972 42.322 48.5176 40.5273C49.9665 40.1131 50.2072 39.5561 50.2024 39.2181C50.1735 39.1181 50.1446 39.0181 50.1206 38.9182C49.9376 38.1945 49.798 37.4709 49.6825 36.7568C29.7007 40.413 13.9646 39.618 12.6649 34.4098C11.1486 28.321 29.9221 18.5093 54.5925 12.4919C79.2677 6.47446 100.501 6.53159 102.017 12.6204C103.307 17.7952 89.9445 25.655 70.757 31.5963C70.9977 32.2866 71.2095 33.0007 71.3924 33.7338C71.4213 33.8433 71.4357 33.9481 71.4598 34.0576L71.4646 34.0528C71.4646 34.0528 72.0952 35.5143 74.1603 34.8764C90.5703 29.8492 103.721 23.7175 110.331 18.2047C110.441 18.1142 110.552 18.019 110.658 17.9285C110.749 17.8476 110.841 17.7714 110.928 17.6905C111.12 17.5191 111.313 17.3477 111.496 17.1811C111.524 17.1526 111.553 17.124 111.582 17.0954C114.177 14.6485 115.385 12.3396 114.889 10.3401C114.398 8.37871 112.314 6.90768 108.968 5.92223C108.964 5.92223 108.959 5.91747 108.954 5.91271C108.882 5.8889 108.8 5.86986 108.723 5.85082C108.656 5.83178 108.588 5.81273 108.516 5.79369C108.193 5.708 107.861 5.62231 107.519 5.54138C107.491 5.53186 107.457 5.52709 107.428 5.52233C96.9052 3.12774 76.5864 4.66542 54.01 10.1735C32.045 15.5244 13.7384 23.2224 5.22289 30.0396C5.18438 30.0729 5.14587 30.1015 5.10736 30.1348C5.00146 30.2205 4.90037 30.3014 4.79928 30.3871C1.25638 33.2673 -0.466938 35.9904 0.11071 38.2993C0.606524 40.2702 2.73901 41.746 6.15194 42.7219C12.0343 44.4453 21.7966 44.6642 33.6672 43.3789Z" fill="#00FF7F"/>
<path d="M9.70927 72.3045H16.5544V69.2434C16.5544 68.5864 16.5159 68.1056 16.4437 67.7962C16.3715 67.4867 16.2319 67.2249 16.0345 67.0249C15.8564 66.8393 15.6494 66.706 15.4232 66.625C15.1969 66.5441 14.8937 66.4917 14.523 66.4727V66.2537H20.6846V66.4727C20.3187 66.4917 20.0203 66.5441 19.794 66.625C19.5678 66.706 19.3608 66.8393 19.1827 67.0249C18.9853 67.2296 18.8457 67.4867 18.7735 67.8009C18.7013 68.1151 18.6628 68.5959 18.6628 69.2434V76.2701C18.6628 76.9175 18.7013 77.3983 18.7735 77.7078C18.8457 78.0172 18.9853 78.2791 19.1827 78.4885C19.3608 78.6647 19.5678 78.798 19.794 78.8837C20.0203 78.9694 20.3187 79.0217 20.6846 79.0408V79.2598H14.523V79.0408C14.8937 79.0217 15.1969 78.9694 15.4232 78.8837C15.6494 78.798 15.8564 78.6647 16.0345 78.4885C16.2319 78.2838 16.3715 78.0267 16.4437 77.7173C16.5159 77.4079 16.5544 76.9223 16.5544 76.2701V72.752H9.70927V76.2701C9.70927 76.9175 9.74778 77.3983 9.81998 77.7173C9.89219 78.0315 10.0318 78.2886 10.2291 78.4933C10.4024 78.6694 10.6046 78.8027 10.8309 78.8884C11.0619 78.9741 11.3604 79.0265 11.731 79.0455V79.2645H5.56946V79.0455C5.94012 79.0265 6.24338 78.9741 6.46963 78.8884C6.69587 78.8027 6.89805 78.6694 7.07134 78.4933C7.27833 78.2886 7.41312 78.0315 7.48532 77.7221C7.55753 77.4126 7.59122 76.927 7.59122 76.2748V69.2481C7.59122 68.5912 7.55753 68.1104 7.48532 67.8009C7.41312 67.4915 7.27833 67.2296 7.07134 67.0297C6.89805 66.844 6.69587 66.7107 6.46481 66.6298C6.23375 66.5489 5.9353 66.4965 5.56946 66.4775V66.2585H11.731V66.4775C11.3652 66.4965 11.0667 66.5489 10.8405 66.6298C10.6094 66.7107 10.4073 66.844 10.2291 67.0297C10.0318 67.2344 9.89219 67.4915 9.81998 67.8057C9.74778 68.1199 9.70927 68.6007 9.70927 69.2481V72.3092V72.3045Z" fill="#00FF7F"/>
<path d="M40.4835 79.2645H35.2799V79.0836C35.7516 79.0408 36.079 78.9646 36.2619 78.8503C36.5892 78.6456 36.7529 78.3648 36.7529 78.0029C36.7529 77.7887 36.6807 77.5031 36.5314 77.1413L36.3967 76.8128L35.6361 74.9657H32.1509L31.737 76.0463L31.5396 76.5319C31.3037 77.1079 31.1834 77.5602 31.1834 77.8887C31.1834 78.0839 31.2267 78.2648 31.3134 78.4314C31.4 78.598 31.5155 78.7361 31.6648 78.8408C31.8718 78.9836 32.1365 79.0646 32.4542 79.0931V79.274H28.9065V79.0931C29.1857 79.0788 29.4312 79.0122 29.643 78.8884C29.8548 78.7694 30.0618 78.5742 30.2592 78.3076C30.4276 78.0934 30.5913 77.8173 30.755 77.4793C30.9138 77.1413 31.1304 76.6366 31.3952 75.9654L34.2931 68.5769H34.7455L38.1922 76.8128C38.4521 77.4317 38.6591 77.8792 38.8083 78.1458C38.9624 78.4124 39.126 78.6123 39.309 78.7504C39.4341 78.8456 39.5833 78.917 39.747 78.9646C39.9107 79.0122 40.1562 79.055 40.4835 79.0931V79.274V79.2645ZM35.5061 74.6419L33.8406 70.5859L32.2713 74.6419H35.5013H35.5061Z" fill="#00FF7F"/>
<path d="M47.1938 79.2645V79.0788C47.7281 79.0788 48.1373 78.9313 48.4309 78.6313C48.5946 78.4647 48.7053 78.2505 48.7679 77.9934C48.8304 77.7363 48.8593 77.3412 48.8593 76.808V71.0334C48.8593 70.4811 48.8256 70.0717 48.7582 69.8099C48.6908 69.5481 48.5705 69.3291 48.3876 69.1624C48.2384 69.0244 48.0747 68.9292 47.8918 68.8625C47.7088 68.8006 47.4778 68.7626 47.189 68.753V68.5721H52.253V68.753C51.9642 68.7673 51.7235 68.8054 51.5406 68.8721C51.3577 68.9339 51.194 69.0339 51.0496 69.1672C50.8715 69.3386 50.7463 69.5576 50.6837 69.8194C50.6212 70.0813 50.5875 70.4859 50.5875 71.0334V75.556C50.5875 76.251 50.6067 76.7699 50.6452 77.1079C50.6837 77.4459 50.7511 77.7221 50.857 77.9363C51.04 78.3124 51.3191 78.5885 51.6802 78.7646C52.046 78.9408 52.5274 79.0265 53.1291 79.0265C53.7308 79.0265 54.2892 78.9455 54.7176 78.7789C55.1461 78.6123 55.5023 78.36 55.7767 78.0172C55.9596 77.784 56.1136 77.5174 56.234 77.2174C56.3543 76.9175 56.465 76.5271 56.5613 76.0416L56.7538 76.0558L56.6528 79.2693H47.1938V79.2645Z" fill="#00FF7F"/>
<path d="M63.5798 79.2645V79.0788C64.1141 79.0788 64.5232 78.9313 64.8169 78.6313C64.9806 78.4647 65.0913 78.2505 65.1539 77.9934C65.2164 77.7363 65.2453 77.3412 65.2453 76.808V71.0334C65.2453 70.4811 65.2116 70.0717 65.1442 69.8099C65.0768 69.5481 64.9565 69.3291 64.7736 69.1624C64.6243 69.0244 64.4607 68.9292 64.2778 68.8625C64.0948 68.8006 63.8638 68.7626 63.575 68.753V68.5721H68.639V68.753C68.3502 68.7673 68.1095 68.8054 67.9266 68.8721C67.7388 68.9339 67.58 69.0339 67.4356 69.1672C67.2574 69.3386 67.1323 69.5576 67.0697 69.8194C67.0071 70.0813 66.9734 70.4859 66.9734 71.0334V75.556C66.9734 76.251 66.9927 76.7699 67.0312 77.1079C67.0697 77.4459 67.1371 77.7221 67.243 77.9363C67.4259 78.3124 67.7051 78.5885 68.0662 78.7646C68.432 78.9408 68.9134 79.0265 69.5151 79.0265C70.1168 79.0265 70.6752 78.9455 71.1036 78.7789C71.532 78.6123 71.8883 78.36 72.1626 78.0172C72.3456 77.784 72.4996 77.5174 72.6199 77.2174C72.7403 76.9175 72.851 76.5271 72.9473 76.0416L73.135 76.0558L73.0339 79.2693H63.575L63.5798 79.2645Z" fill="#00FF7F"/>
<path d="M88.4812 68.5721L88.616 71.1572L88.4331 71.1667C88.3657 70.7287 88.2502 70.3669 88.0913 70.0765C87.9325 69.7909 87.7014 69.5338 87.403 69.3148C87.1526 69.1339 86.8638 69.0006 86.522 68.9292C86.1851 68.853 85.7326 68.8149 85.1742 68.8149H83.3594V73.5184H83.836C84.3174 73.5184 84.6784 73.4851 84.9239 73.4232C85.1694 73.3613 85.3667 73.2471 85.516 73.0852C85.6652 72.9329 85.7759 72.7567 85.8433 72.5473C85.9155 72.3426 85.9733 72.0379 86.0214 71.6332L86.2043 71.6427L86.1706 75.8416H85.9877C85.9396 75.4417 85.8722 75.118 85.7759 74.8704C85.6844 74.6277 85.5545 74.4182 85.3908 74.242C85.232 74.0754 85.025 73.9516 84.7747 73.8755C84.5195 73.7993 84.197 73.7565 83.8071 73.7565H83.3546V75.5512C83.3546 76.2653 83.3739 76.789 83.4076 77.1127C83.4461 77.4412 83.5183 77.7125 83.6242 77.9315C83.8023 78.3076 84.0767 78.5837 84.4425 78.7599C84.8083 78.936 85.2945 79.0217 85.8963 79.0217C86.5317 79.0217 87.0612 78.9408 87.4896 78.7837C87.918 78.6218 88.2646 78.379 88.5342 78.041C88.7219 77.8173 88.8808 77.5602 88.9963 77.2746C89.1166 76.9889 89.2225 76.6081 89.3236 76.1368L89.5065 76.1463L89.4055 79.2645H79.9561V79.0836C80.2594 79.0693 80.5001 79.0265 80.6878 78.9598C80.8755 78.8932 81.044 78.7837 81.1884 78.6313C81.3521 78.4647 81.4628 78.2505 81.5254 77.9934C81.588 77.7363 81.6168 77.3412 81.6168 76.808V71.0334C81.6168 70.5002 81.588 70.1051 81.5254 69.848C81.4628 69.5909 81.3521 69.3767 81.1884 69.2101C81.044 69.0577 80.8803 68.9482 80.6926 68.8816C80.5049 68.8149 80.2594 68.7721 79.9513 68.7578V68.5769H88.4668L88.4812 68.5721Z" fill="#00FF7F"/>
<path d="M99.779 79.2645V79.0455C100.145 79.0265 100.443 78.9741 100.674 78.8932C100.905 78.8122 101.108 78.679 101.291 78.4933C101.488 78.2886 101.623 78.0363 101.695 77.7221C101.767 77.4126 101.801 76.9318 101.801 76.2796L101.81 74.4277C101.81 74.1611 101.757 73.8659 101.647 73.5422C101.526 73.1661 101.276 72.6996 100.896 72.1378L98.4071 68.4436L97.9642 67.7771C97.6369 67.2963 97.3192 66.9678 97.0015 66.7869C96.8426 66.6917 96.679 66.625 96.5201 66.5869C96.3613 66.5489 96.135 66.5251 95.8462 66.5108V66.2918H102.114V66.5108C101.579 66.5441 101.242 66.5917 101.093 66.6536C100.737 66.8059 100.554 67.0821 100.554 67.4819C100.554 67.6295 100.593 67.7914 100.674 67.977C100.756 68.1627 100.886 68.3912 101.064 68.6721L103.669 72.6996L105.897 69.2577L106.148 68.8673C106.383 68.5007 106.504 68.1389 106.504 67.7866C106.504 67.382 106.374 67.0678 106.109 66.844C105.844 66.6203 105.478 66.5108 105.002 66.5108V66.2918H109.421V66.5108C109.089 66.5489 108.834 66.606 108.651 66.6774C108.473 66.7488 108.29 66.8678 108.102 67.0344C107.664 67.4391 107.183 68.0437 106.653 68.8482L104.463 72.1569C104.203 72.552 104.039 72.8377 103.981 73.0233C103.924 73.209 103.895 73.5184 103.895 73.9564V76.2844C103.895 76.9604 103.928 77.4507 103.996 77.7411C104.063 78.0363 104.198 78.2886 104.405 78.498C104.756 78.8646 105.262 79.0503 105.912 79.0503V79.2693H99.7694L99.779 79.2645Z" fill="#00FF7F"/>
<path d="M27.8859 84.4298L27.9244 85.8818H27.8474C27.8233 85.8199 27.8041 85.7723 27.7896 85.739C27.7126 85.5295 27.65 85.3772 27.6019 85.2724C27.5152 85.0915 27.3949 84.9249 27.2312 84.7726C27.1061 84.6583 26.9809 84.5726 26.8509 84.5202C26.721 84.4679 26.5718 84.4441 26.4081 84.4441C26.1626 84.4441 25.946 84.4965 25.763 84.6012C25.6042 84.6964 25.455 84.8297 25.3154 85.0011C25.1758 85.1772 25.0651 85.3724 24.9784 85.5962C24.8533 85.9104 24.7907 86.2674 24.7907 86.6673C24.7907 87.0101 24.834 87.3147 24.9206 87.5861C25.0073 87.8575 25.1324 88.086 25.2961 88.2716C25.5994 88.6144 25.9989 88.7858 26.4995 88.7858C26.7499 88.7858 26.9761 88.7429 27.1735 88.6572C27.3708 88.5715 27.5249 88.4525 27.6356 88.2954C27.7607 88.1145 27.857 87.8717 27.91 87.5671L27.987 87.5813C27.9437 87.9241 27.8522 88.1955 27.703 88.3954C27.5634 88.5858 27.3708 88.7334 27.1253 88.8381C26.8798 88.9381 26.591 88.9905 26.2685 88.9905C25.9652 88.9905 25.6764 88.9476 25.402 88.8572C24.964 88.7144 24.6174 88.4573 24.3719 88.0812C24.1264 87.7051 24.0012 87.2624 24.0012 86.7435C24.0012 86.3483 24.0734 85.9818 24.2178 85.6485C24.3623 85.3153 24.5644 85.0439 24.8244 84.8392C25.0217 84.6821 25.2624 84.5583 25.5368 84.4679C25.816 84.3774 26.0904 84.3298 26.3696 84.3298C26.6488 84.3298 26.9135 84.3822 27.212 84.4774L27.4815 84.5679C27.5345 84.5869 27.5778 84.5964 27.6211 84.5964C27.6741 84.5964 27.7222 84.5726 27.7559 84.5298C27.7704 84.506 27.7896 84.4726 27.8137 84.4203H27.8907L27.8859 84.4298Z" fill="#00FF7F"/>
<path d="M38.5243 84.4536V84.5298C38.3992 84.5345 38.2981 84.5536 38.2211 84.5821C38.144 84.6107 38.0766 84.6536 38.0141 84.7202C37.9274 84.8059 37.8745 84.9249 37.8552 85.082C37.8408 85.1963 37.836 85.3296 37.836 85.4771V87.8717C37.836 88.0526 37.8456 88.1955 37.86 88.2954C37.8793 88.4002 37.9082 88.4811 37.9467 88.5477C38.0044 88.6334 38.0766 88.7001 38.1681 88.7429C38.2596 88.7858 38.3751 88.8096 38.5243 88.8191V88.8953H36.4255V88.8191C36.5507 88.8143 36.6566 88.7953 36.7336 88.7667C36.8106 88.7382 36.878 88.6906 36.9406 88.6334C37.0128 88.562 37.0561 88.4763 37.0802 88.3716C37.1043 88.2669 37.1187 88.1002 37.1187 87.8765V85.4819C37.1187 85.2581 37.1091 85.0915 37.0802 84.9868C37.0561 84.8821 37.008 84.7916 36.9406 84.725C36.8828 84.6631 36.8106 84.6155 36.7336 84.5869C36.6566 84.5583 36.5507 84.5393 36.4304 84.5345V84.4584H38.5291L38.5243 84.4536Z" fill="#00FF7F"/>
<path d="M47.7473 85.0392V87.867C47.7473 88.0907 47.7618 88.2573 47.7858 88.3621C47.8099 88.4668 47.858 88.5573 47.9254 88.6239C47.988 88.6858 48.0554 88.7334 48.1324 88.762C48.2094 88.7905 48.3105 88.8096 48.4357 88.8143V88.8905H46.9194V88.8143C47.0445 88.8096 47.1456 88.7905 47.2226 88.762C47.2996 88.7334 47.3719 88.6906 47.4296 88.6239C47.497 88.5573 47.5451 88.4668 47.5692 88.3621C47.5933 88.2526 47.6077 88.0907 47.6077 87.867V85.4676C47.6077 85.2486 47.5933 85.0868 47.5692 84.9773C47.5451 84.8725 47.497 84.7821 47.4296 84.7107C47.3719 84.6488 47.2996 84.6012 47.2226 84.5726C47.1456 84.544 47.0445 84.525 46.9146 84.5202V84.4441H48.1806L50.8474 87.8098V85.4629C50.8474 85.2391 50.8329 85.0772 50.8089 84.9677C50.7848 84.863 50.7367 84.7726 50.6693 84.7059C50.6067 84.644 50.5393 84.5964 50.4623 84.5679C50.3853 84.5393 50.2842 84.5202 50.159 84.5155V84.4393H51.6753V84.5155C51.4539 84.5155 51.2854 84.5774 51.1603 84.7059C51.0929 84.7773 51.0447 84.863 51.0207 84.9725C50.9966 85.082 50.9822 85.2439 50.9822 85.4629V88.881H50.8329L47.7377 85.0344L47.7473 85.0392Z" fill="#00FF7F"/>
<path d="M63.6183 84.4536L63.6761 85.5247H63.599C63.5702 85.3438 63.522 85.1963 63.4594 85.0772C63.392 84.9582 63.3006 84.8535 63.1754 84.763C63.0743 84.6869 62.9492 84.6345 62.8096 84.6012C62.67 84.5679 62.4823 84.5536 62.2512 84.5536H61.5003V86.5054H61.6976C61.895 86.5054 62.049 86.4912 62.1501 86.4673C62.2512 86.4435 62.333 86.3959 62.3956 86.3293C62.4582 86.2674 62.5015 86.1912 62.5304 86.1055C62.5593 86.0198 62.5833 85.8913 62.6026 85.7295H62.6796L62.6652 87.4766H62.5882C62.5689 87.31 62.54 87.1767 62.5015 87.0719C62.463 86.972 62.41 86.8815 62.3427 86.8101C62.2753 86.7435 62.1934 86.6911 62.0875 86.6578C61.9816 86.6244 61.8468 86.6102 61.688 86.6102H61.5003V87.3528C61.5003 87.648 61.5051 87.867 61.5243 88.0003C61.5388 88.1336 61.5676 88.2478 61.611 88.3383C61.6832 88.4954 61.7987 88.6096 61.9527 88.681C62.1068 88.7524 62.3041 88.7905 62.5545 88.7905C62.8192 88.7905 63.0358 88.7572 63.2139 88.6906C63.3921 88.6239 63.5365 88.5239 63.6472 88.3859C63.7242 88.2907 63.7916 88.1859 63.8397 88.0669C63.8879 87.9479 63.936 87.7908 63.9745 87.5956H64.0515L64.0082 88.8905H60.085V88.8143C60.2102 88.8096 60.3113 88.7905 60.3883 88.762C60.4653 88.7334 60.5375 88.6906 60.5953 88.6239C60.6627 88.5525 60.7108 88.4668 60.7349 88.3573C60.7589 88.2478 60.7734 88.086 60.7734 87.8622V85.4676C60.7734 85.2486 60.7589 85.082 60.7349 84.9725C60.7108 84.8678 60.6627 84.7773 60.5953 84.7059C60.5375 84.644 60.4653 84.5964 60.3883 84.5679C60.3113 84.5393 60.2054 84.5202 60.0802 84.5155V84.4393H63.6135L63.6183 84.4536Z" fill="#00FF7F"/>
<path d="M78.0306 84.5298C77.9055 84.5345 77.8044 84.5536 77.7322 84.5821C77.6551 84.6107 77.5878 84.6535 77.5252 84.7154C77.477 84.763 77.4433 84.8106 77.4193 84.8678C77.3952 84.9201 77.3808 84.9916 77.3711 85.0772C77.3567 85.1915 77.3471 85.3248 77.3471 85.4771V87.8717C77.3471 88.0955 77.3615 88.2621 77.3856 88.3668C77.4096 88.4763 77.4578 88.562 77.5252 88.6287C77.6455 88.7429 77.814 88.8048 78.0354 88.8191V88.8953H75.9366V88.8191C76.0618 88.8143 76.1677 88.7953 76.2447 88.7667C76.3217 88.7382 76.3939 88.6906 76.4517 88.6287C76.5191 88.562 76.5672 88.4716 76.5913 88.3668C76.6154 88.2573 76.6298 88.0955 76.6298 87.8717V84.9677L74.9354 88.8953H74.868L73.188 85.0296V87.8765C73.188 88.1002 73.1976 88.2669 73.2265 88.3716C73.2506 88.4763 73.2987 88.5668 73.3661 88.6334C73.4287 88.6953 73.4961 88.7429 73.5731 88.7715C73.6501 88.8001 73.7512 88.8191 73.8764 88.8239V88.9H72.36V88.8239C72.4852 88.8191 72.5863 88.8001 72.6633 88.7715C72.7403 88.7429 72.8077 88.7001 72.8703 88.6334C72.9377 88.5668 72.9858 88.4763 73.0099 88.3716C73.034 88.2621 73.0484 88.1002 73.0484 87.8765V85.4819C73.0484 85.3819 73.0484 85.2867 73.0388 85.201C73.0291 85.0392 73.0051 84.9249 72.9618 84.8487C72.9088 84.7488 72.8318 84.6726 72.7355 84.625C72.6392 84.5774 72.5141 84.5488 72.3552 84.5393V84.4631H73.7801L75.205 87.9384L76.678 84.4631H78.0306V84.5393V84.5298Z" fill="#00FF7F"/>
<path d="M91.0036 88.8905H88.847V88.8143C89.0396 88.7953 89.1792 88.7667 89.2562 88.7144C89.391 88.6287 89.4584 88.5144 89.4584 88.3621C89.4584 88.2716 89.4295 88.1526 89.3669 88.005L89.3091 87.867L88.9914 87.1005H87.5473L87.3788 87.548L87.297 87.748C87.2007 87.986 87.1478 88.1717 87.1478 88.3097C87.1478 88.3906 87.167 88.4668 87.2007 88.5335C87.2392 88.6001 87.2874 88.6572 87.3451 88.7001C87.4318 88.7572 87.5425 88.7953 87.6725 88.8048V88.881H86.1995V88.8048C86.315 88.8001 86.4161 88.7715 86.5027 88.7191C86.5894 88.6715 86.676 88.5906 86.7578 88.4763C86.8301 88.3859 86.8975 88.2716 86.9648 88.1336C87.0322 87.9955 87.1189 87.786 87.2296 87.5052L88.433 84.4393H88.6208L90.0504 87.8527C90.1563 88.1098 90.243 88.2954 90.3056 88.4049C90.3682 88.5144 90.4404 88.6001 90.5126 88.6525C90.5655 88.6906 90.6233 88.7191 90.6955 88.7429C90.7629 88.762 90.864 88.781 91.0036 88.7953V88.8715V88.8905ZM88.9433 86.972L88.2549 85.2867L87.6051 86.972H88.9481H88.9433Z" fill="#00FF7F"/>
</g>
<defs>
<clipPath id="clip0_156_774">
<rect width="115" height="89" fill="white"/>
</clipPath>
</defs>
</svg>
