<svg width="115" height="56" viewBox="0 0 115 56" fill="none" xmlns="http://www.w3.org/2000/svg">
<path d="M52.0643 44.1149C33.6903 47.89 17.2707 49.2611 6.12689 48.2281C15.5185 55.7165 37.2284 57.6017 61.3067 52.2889C57.7638 51.5557 54.3316 48.5042 52.0643 44.1149Z" fill="white"/>
<path d="M57.0032 20.664C56.1271 20.8782 55.3329 21.2781 54.6252 21.8351C55.2751 21.9065 56.3197 21.8018 57.4653 21.5257C58.4425 21.2876 59.2994 20.9687 59.8674 20.6497C58.9143 20.4402 57.9467 20.4355 57.0032 20.6688" fill="white"/>
<path d="M60.5798 19.8976C60.4691 19.4453 58.8902 19.4453 57.061 19.888C55.227 20.3355 53.831 21.0639 53.9417 21.5162C53.9561 21.5781 53.9995 21.6352 54.0669 21.678C54.8852 21.0782 55.7902 20.6402 56.7818 20.3974C57.9371 20.1165 59.1165 20.1213 60.2814 20.3784C60.5028 20.2022 60.6135 20.0356 60.575 19.8976" fill="white"/>
<path d="M52.8827 23.787C54.4135 23.6584 56.1945 23.3633 58.0623 22.911C59.5978 22.5349 61.0275 22.0922 62.2743 21.6209C61.6292 21.24 60.9649 20.9496 60.2958 20.7592C59.6267 21.121 58.6447 21.4828 57.5231 21.7542C56.233 22.0684 55.0489 22.1969 54.2739 22.1303C53.754 22.5968 53.287 23.1538 52.8875 23.787" fill="white"/>
<path d="M61.918 41.9012C59.747 42.4296 57.5953 42.9295 55.458 43.396C57.7927 46.0001 60.729 47.3236 63.4825 46.6523C66.2456 45.9811 68.224 43.4532 69.0616 40.0588C66.7221 40.6968 64.3442 41.3109 61.918 41.9012Z" fill="white"/>
<path d="M64.4116 23.2776C63.9591 22.8301 63.4873 22.435 62.9963 22.0874C61.5185 22.6492 59.8193 23.1824 57.9901 23.6251C55.9924 24.1107 54.0861 24.4439 52.4061 24.6153C52.1366 25.1295 51.9103 25.677 51.7178 26.2577C53.8791 25.9721 56.2379 25.5341 58.6832 24.9343C60.7146 24.4392 62.6401 23.8774 64.4068 23.2776" fill="white"/>
<path d="M59.9636 31.5468C62.823 30.8517 65.5813 30.09 68.2192 29.2903C67.5019 27.3812 66.5199 25.7007 65.3791 24.3297C63.2947 25.0343 61.0323 25.6912 58.6495 26.272C56.103 26.8909 53.6288 27.3765 51.3278 27.7145C50.9523 29.4569 50.8753 31.3992 51.1304 33.4272C53.985 32.9131 56.9454 32.2847 59.9685 31.5468" fill="white"/>
<path d="M61.066 38.464C69.0616 36.5122 69.4515 35.0602 69.4323 34.4889C69.3552 33.7082 69.2349 32.9131 69.0568 32.1086C66.183 32.9703 63.1792 33.7796 60.0888 34.5365C57.2487 35.2268 54.4519 35.8409 51.7274 36.3741C51.9247 37.0596 52.1462 37.7261 52.4061 38.3641C52.435 38.4307 53.3207 40.354 61.066 38.464Z" fill="white"/>
<path d="M67.0302 18.217C66.7077 16.9174 62.1635 16.9031 56.8829 18.1885C51.607 19.4738 47.5876 21.578 47.9149 22.8777C48.1026 23.6251 49.6767 23.9441 51.9777 23.8441C52.4687 23.1443 53.0271 22.5254 53.6432 22.0065C53.4796 21.9399 53.3737 21.8542 53.3448 21.7399C53.21 21.2067 54.8611 20.345 57.0321 19.8119C59.1983 19.2834 61.066 19.2882 61.2008 19.8214C61.2489 20.0118 61.0708 20.2403 60.729 20.4831C61.4607 20.683 62.1828 20.983 62.8904 21.3686C65.5668 20.2784 67.242 19.074 67.0254 18.2123" fill="white"/>
<path d="M74.7322 16.5508C74.1497 14.2229 66.0193 14.1991 56.5796 16.5032C47.1351 18.8074 39.9482 22.5635 40.5258 24.8915C40.9302 26.5148 44.9929 27.0147 50.6154 26.3958C50.8513 25.796 51.1305 25.2295 51.4385 24.701C48.3722 24.9153 46.2397 24.5487 46.0038 23.5966C45.6187 22.0589 50.3651 19.5786 56.6037 18.0552C62.8374 16.5365 68.2048 16.5508 68.5899 18.0885C68.845 19.1073 66.8521 20.5355 63.6702 21.8304C64.1949 22.1731 64.7148 22.5635 65.2202 23.0015C71.223 20.864 75.175 18.3027 74.7418 16.5508" fill="white"/>
<path d="M94.661 13.4136C93.4046 8.37683 75.8345 8.32923 55.4147 13.3088C34.9948 18.2885 19.4609 26.4101 20.7173 31.4469C21.7475 35.5886 33.801 36.3551 49.4023 33.732C49.3494 31.6373 49.5997 29.6569 50.1051 27.8859C42.6776 28.8523 37.1899 28.2953 36.6748 26.2149C35.972 23.3966 44.6656 18.8455 56.1031 16.0557C67.5357 13.266 77.3749 13.2946 78.0777 16.1129C78.612 18.2599 73.6972 21.4114 66.2745 24.0203C67.5405 25.3532 68.6765 26.9861 69.6056 28.8571C85.0432 23.9774 95.7104 17.6172 94.661 13.4088" fill="white"/>
<path d="M67.7908 50.6988C91.3925 44.3053 109.526 32.7322 114.291 21.8542C104.987 27.8383 89.9677 34.1271 72.1087 39.2114C72.1617 44.1434 70.5635 48.4137 67.786 50.6988" fill="white"/>
<path d="M101.01 2.42603C89.1878 -1.08256 71.3963 -0.901653 52.4013 3.73044C33.4111 8.36253 17.5691 16.3842 8.75519 24.9248C20.0001 19.1644 35.8228 13.4516 53.7395 9.08615C71.6514 4.71589 88.3454 2.5022 101.01 2.42603Z" fill="white"/>
<path d="M33.6662 43.3817C34.0369 43.3341 42.1962 42.3249 48.5166 40.5301C49.9655 40.1159 50.2062 39.559 50.2014 39.221C50.1725 39.121 50.1436 39.021 50.1196 38.921C49.9367 38.1974 49.7971 37.4738 49.6815 36.7597C29.6997 40.4159 13.9636 39.6208 12.6639 34.4127C11.1476 28.3239 29.9212 18.5122 54.5915 12.4948C79.2667 6.47733 100.5 6.53446 102.016 12.6233C103.306 17.7981 89.9436 25.6579 70.756 31.5992C70.9967 32.2895 71.2085 33.0036 71.3914 33.7367C71.4203 33.8462 71.4348 33.9509 71.4588 34.0604L71.4637 34.0557C71.4637 34.0557 72.0942 35.5172 74.1593 34.8793C90.5693 29.852 103.72 23.7203 110.33 18.2075C110.44 18.1171 110.551 18.0219 110.657 17.9314C110.748 17.8505 110.84 17.7743 110.927 17.6934C111.119 17.522 111.312 17.3506 111.495 17.184C111.524 17.1554 111.552 17.1269 111.581 17.0983C114.176 14.6513 115.384 12.3424 114.888 10.343C114.397 8.38158 112.313 6.91055 108.967 5.9251C108.963 5.9251 108.958 5.92034 108.953 5.91557C108.881 5.89177 108.799 5.87273 108.722 5.85369C108.655 5.83464 108.587 5.8156 108.515 5.79656C108.192 5.71087 107.86 5.62518 107.518 5.54425C107.49 5.53472 107.456 5.52996 107.427 5.5252C96.9042 3.13061 76.5855 4.66829 54.0091 10.1763C32.044 15.5273 13.7374 23.2252 5.22191 30.0425C5.1834 30.0758 5.14489 30.1043 5.10638 30.1377C5.00048 30.2234 4.89939 30.3043 4.79831 30.39C1.2554 33.2702 -0.467914 35.9932 0.109733 38.3022C0.605548 40.273 2.73803 41.7488 6.15096 42.7248C12.0333 44.4481 21.7956 44.6671 33.6662 43.3817Z" fill="white"/>
</svg>
