<svg width="115" height="56" viewBox="0 0 115 56" fill="none" xmlns="http://www.w3.org/2000/svg">
<path d="M52.0644 44.1149C33.6904 47.89 17.2707 49.2611 6.12695 48.2281C15.5185 55.7165 37.2285 57.6017 61.3067 52.2889C57.7638 51.5557 54.3316 48.5042 52.0644 44.1149Z" fill="#00FF7F"/>
<path d="M57.003 20.664C56.1269 20.8782 55.3326 21.2781 54.625 21.8351C55.2749 21.9065 56.3194 21.8018 57.4651 21.5257C58.4423 21.2876 59.2991 20.9687 59.8672 20.6497C58.914 20.4402 57.9465 20.4355 57.003 20.6688" fill="#00FF7F"/>
<path d="M60.5798 19.8976C60.4691 19.4453 58.8902 19.4453 57.061 19.888C55.227 20.3355 53.831 21.0639 53.9417 21.5162C53.9561 21.5781 53.9995 21.6352 54.0669 21.678C54.8852 21.0782 55.7902 20.6402 56.7818 20.3974C57.9371 20.1165 59.1165 20.1213 60.2814 20.3784C60.5028 20.2022 60.6135 20.0356 60.575 19.8976" fill="#00FF7F"/>
<path d="M52.8828 23.787C54.4136 23.6584 56.1947 23.3633 58.0624 22.911C59.598 22.5349 61.0276 22.0922 62.2744 21.6209C61.6294 21.24 60.9651 20.9496 60.296 20.7592C59.6268 21.121 58.6448 21.4828 57.5232 21.7542C56.2332 22.0684 55.049 22.1969 54.274 22.1303C53.7541 22.5968 53.2872 23.1538 52.8876 23.787" fill="#00FF7F"/>
<path d="M61.918 41.9012C59.747 42.4296 57.5953 42.9295 55.458 43.396C57.7927 46.0001 60.729 47.3236 63.4825 46.6523C66.2456 45.9811 68.224 43.4532 69.0616 40.0588C66.7221 40.6968 64.3442 41.3109 61.918 41.9012Z" fill="#00FF7F"/>
<path d="M64.4116 23.2776C63.9591 22.8301 63.4873 22.435 62.9963 22.0874C61.5185 22.6492 59.8193 23.1824 57.9901 23.6251C55.9924 24.1107 54.0861 24.4439 52.4061 24.6153C52.1366 25.1295 51.9103 25.677 51.7178 26.2577C53.8791 25.9721 56.2379 25.5341 58.6832 24.9343C60.7146 24.4392 62.6401 23.8774 64.4068 23.2776" fill="#00FF7F"/>
<path d="M59.9636 31.5468C62.8229 30.8517 65.5812 30.09 68.2191 29.2903C67.5019 27.3812 66.5199 25.7007 65.379 24.3297C63.2947 25.0343 61.0322 25.6912 58.6494 26.272C56.103 26.8909 53.6287 27.3765 51.3277 27.7145C50.9523 29.4569 50.8753 31.3992 51.1304 33.4272C53.9849 32.9131 56.9454 32.2847 59.9684 31.5468" fill="#00FF7F"/>
<path d="M61.0662 38.464C69.0618 36.5122 69.4517 35.0602 69.4324 34.4889C69.3554 33.7082 69.2351 32.9131 69.057 32.1086C66.1832 32.9703 63.1794 33.7796 60.089 34.5365C57.2489 35.2268 54.4521 35.8409 51.7275 36.3741C51.9249 37.0596 52.1463 37.7261 52.4063 38.3641C52.4352 38.4307 53.3209 40.354 61.0662 38.464Z" fill="#00FF7F"/>
<path d="M67.0305 18.217C66.7079 16.9174 62.1638 16.9031 56.8831 18.1885C51.6073 19.4738 47.5878 21.578 47.9151 22.8777C48.1029 23.6251 49.677 23.9441 51.9779 23.8441C52.4689 23.1443 53.0273 22.5254 53.6435 22.0065C53.4798 21.9399 53.3739 21.8542 53.345 21.7399C53.2102 21.2067 54.8614 20.345 57.0323 19.8119C59.1985 19.2834 61.0662 19.2882 61.201 19.8214C61.2492 20.0118 61.0711 20.2403 60.7293 20.4831C61.461 20.683 62.183 20.983 62.8907 21.3686C65.5671 20.2784 67.2423 19.074 67.0257 18.2123" fill="#00FF7F"/>
<path d="M74.732 16.5508C74.1496 14.2229 66.0192 14.1991 56.5795 16.5032C47.1349 18.8074 39.948 22.5635 40.5257 24.8915C40.93 26.5148 44.9928 27.0147 50.6153 26.3958C50.8511 25.796 51.1303 25.2295 51.4384 24.701C48.3721 24.9153 46.2396 24.5487 46.0037 23.5966C45.6186 22.0589 50.3649 19.5786 56.6035 18.0552C62.8373 16.5365 68.2046 16.5508 68.5897 18.0885C68.8449 19.1073 66.852 20.5355 63.6701 21.8304C64.1948 22.1731 64.7147 22.5635 65.2201 23.0015C71.2228 20.864 75.1749 18.3027 74.7417 16.5508" fill="#00FF7F"/>
<path d="M94.6608 13.4136C93.4045 8.37683 75.8343 8.32923 55.4145 13.3088C34.9947 18.2885 19.4608 26.4101 20.7171 31.4469C21.7473 35.5886 33.8009 36.3551 49.4022 33.732C49.3492 31.6373 49.5995 29.6569 50.105 27.8859C42.6774 28.8523 37.1897 28.2953 36.6747 26.2149C35.9719 23.3966 44.6654 18.8455 56.1029 16.0557C67.5355 13.266 77.3747 13.2946 78.0775 16.1129C78.6119 18.2599 73.697 21.4114 66.2743 24.0203C67.5403 25.3532 68.6763 26.9861 69.6054 28.8571C85.043 23.9774 95.7102 17.6172 94.6608 13.4088" fill="#00FF7F"/>
<path d="M67.7909 50.6988C91.3927 44.3053 109.526 32.7322 114.292 21.8542C104.987 27.8383 89.9678 34.1271 72.1089 39.2114C72.1618 44.1434 70.5637 48.4137 67.7861 50.6988" fill="#00FF7F"/>
<path d="M101.01 2.42603C89.188 -1.08256 71.3964 -0.901653 52.4015 3.73044C33.4113 8.36253 17.5693 16.3842 8.75537 24.9248C20.0002 19.1644 35.823 13.4516 53.7397 9.08615C71.6516 4.71589 88.3456 2.5022 101.01 2.42603Z" fill="#00FF7F"/>
<path d="M33.6662 43.3817C34.0369 43.3341 42.1962 42.3249 48.5166 40.5301C49.9655 40.1159 50.2062 39.559 50.2014 39.221C50.1725 39.121 50.1436 39.021 50.1196 38.921C49.9367 38.1974 49.7971 37.4738 49.6815 36.7597C29.6997 40.4159 13.9636 39.6208 12.6639 34.4127C11.1476 28.3239 29.9212 18.5122 54.5915 12.4948C79.2667 6.47733 100.5 6.53446 102.016 12.6233C103.306 17.7981 89.9436 25.6579 70.756 31.5992C70.9967 32.2895 71.2085 33.0036 71.3914 33.7367C71.4203 33.8462 71.4348 33.9509 71.4588 34.0604L71.4637 34.0557C71.4637 34.0557 72.0942 35.5172 74.1593 34.8793C90.5693 29.852 103.72 23.7203 110.33 18.2075C110.44 18.1171 110.551 18.0219 110.657 17.9314C110.748 17.8505 110.84 17.7743 110.927 17.6934C111.119 17.522 111.312 17.3506 111.495 17.184C111.524 17.1554 111.552 17.1269 111.581 17.0983C114.176 14.6513 115.384 12.3424 114.888 10.343C114.397 8.38158 112.313 6.91055 108.967 5.9251C108.963 5.9251 108.958 5.92034 108.953 5.91557C108.881 5.89177 108.799 5.87273 108.722 5.85369C108.655 5.83464 108.587 5.8156 108.515 5.79656C108.192 5.71087 107.86 5.62518 107.518 5.54425C107.49 5.53472 107.456 5.52996 107.427 5.5252C96.9042 3.13061 76.5855 4.66829 54.0091 10.1763C32.044 15.5273 13.7374 23.2252 5.22191 30.0425C5.1834 30.0758 5.14489 30.1043 5.10638 30.1377C5.00048 30.2234 4.89939 30.3043 4.79831 30.39C1.2554 33.2702 -0.467914 35.9932 0.109733 38.3022C0.605548 40.273 2.73803 41.7488 6.15096 42.7248C12.0333 44.4481 21.7956 44.6671 33.6662 43.3817Z" fill="#00FF7F"/>
</svg>
